<?xml version="1.0" standalone="no"?>
<!DOCTYPE svg PUBLIC "-//W3C//DTD SVG 20010904//EN"
 "http://www.w3.org/TR/2001/REC-SVG-20010904/DTD/svg10.dtd">
<svg version="1.0" xmlns="http://www.w3.org/2000/svg"
 width="48.000000pt" height="48.000000pt" viewBox="0 0 48.000000 48.000000"
 preserveAspectRatio="xMidYMid meet">

<g transform="translate(0.000000,48.000000) scale(0.100000,-0.100000)"
fill="#000000" stroke="none">
<path d="M104 441 c-36 -22 -94 -87 -94 -105 0 -30 29 -24 50 9 12 19 37 44
56 55 32 21 43 43 26 54 -5 3 -22 -3 -38 -13z"/>
<path d="M336 453 c-14 -14 -4 -33 28 -53 19 -11 44 -36 56 -55 21 -34 50 -39
50 -9 0 33 -116 134 -134 117z"/>
<path d="M172 389 c-48 -14 -109 -80 -123 -131 -23 -89 12 -182 88 -229 57
-36 154 -34 210 3 62 41 88 90 88 168 0 77 -26 127 -85 166 -43 29 -125 39
-178 23z m131 -43 c103 -43 128 -177 48 -257 -112 -113 -296 -12 -267 146 18
94 128 150 219 111z"/>
<path d="M230 311 c0 -15 -3 -48 -6 -73 -6 -43 -5 -46 42 -91 45 -42 74 -58
74 -40 0 4 -18 25 -40 48 -36 37 -40 46 -46 113 -7 70 -24 102 -24 43z"/>
</g>
</svg>
