<?xml version="1.0" standalone="no"?>
<!DOCTYPE svg PUBLIC "-//W3C//DTD SVG 20010904//EN"
 "http://www.w3.org/TR/2001/REC-SVG-20010904/DTD/svg10.dtd">
<svg version="1.0" xmlns="http://www.w3.org/2000/svg"
 width="32.000000pt" height="32.000000pt" viewBox="0 0 32.000000 32.000000"
 preserveAspectRatio="xMidYMid meet">

<g transform="translate(0.000000,32.000000) scale(0.100000,-0.100000)"
fill="#000000" stroke="none">
<path d="M106 272 c65 -58 65 -55 -15 -136 l-72 -72 24 -23 24 -22 63 70 c35
39 66 71 70 71 4 0 10 -9 13 -20 7 -28 29 -25 61 9 l27 28 -24 19 c-13 11 -29
29 -35 41 -15 28 -89 63 -133 63 l-34 -1 31 -27z m92 -22 c20 -12 32 -28 32
-41 0 -13 8 -23 20 -26 20 -5 20 -6 3 -25 -17 -19 -17 -19 -25 1 -4 12 -16 21
-28 21 -13 0 -20 7 -20 19 0 10 -9 30 -21 45 -25 32 -8 35 39 6z m-28 -88 c0
-14 -106 -113 -113 -105 -4 4 16 31 45 60 50 50 68 63 68 45z"/>
</g>
</svg>
