<?xml version="1.0" standalone="no"?>
<!DOCTYPE svg PUBLIC "-//W3C//DTD SVG 20010904//EN"
 "http://www.w3.org/TR/2001/REC-SVG-20010904/DTD/svg10.dtd">
<svg version="1.0" xmlns="http://www.w3.org/2000/svg"
 width="32.000000pt" height="32.000000pt" viewBox="0 0 32.000000 32.000000"
 preserveAspectRatio="xMidYMid meet">

<g transform="translate(0.000000,32.000000) scale(0.100000,-0.100000)"
fill="#000000" stroke="none">
<path d="M133 297 c-41 -23 -83 -97 -55 -97 4 0 15 -14 24 -30 15 -27 16 -32
2 -37 -15 -5 -44 -53 -44 -73 0 -5 5 -10 10 -10 6 0 10 6 10 13 0 23 17 40 31
31 25 -15 89 -11 99 5 8 13 12 10 22 -16 12 -32 28 -44 28 -23 0 20 -29 68
-44 73 -14 5 -13 10 2 37 9 16 20 30 25 30 29 0 -17 77 -60 99 -26 13 -23 13
-50 -2z m20 -29 c4 -10 8 -10 15 1 9 12 13 12 26 2 8 -7 12 -18 10 -26 -3 -7
3 -15 13 -18 10 -3 -16 -5 -57 -5 -41 0 -67 2 -57 5 10 3 16 11 14 18 -5 12
10 35 24 35 4 0 10 -6 12 -12z m57 -77 c0 -16 -31 -41 -50 -41 -19 0 -50 25
-50 41 0 5 23 9 50 9 28 0 50 -4 50 -9z m-20 -69 c0 -4 -16 -8 -35 -9 -19 -1
-32 3 -29 8 7 11 64 12 64 1z"/>
</g>
</svg>
