<?xml version="1.0" standalone="no"?>
<!DOCTYPE svg PUBLIC "-//W3C//DTD SVG 20010904//EN"
 "http://www.w3.org/TR/2001/REC-SVG-20010904/DTD/svg10.dtd">
<svg version="1.0" xmlns="http://www.w3.org/2000/svg"
 width="50.000000pt" height="50.000000pt" viewBox="0 0 50.000000 50.000000"
 preserveAspectRatio="xMidYMid meet">

<g transform="translate(0.000000,50.000000) scale(0.100000,-0.100000)"
fill="#000000" stroke="none">
<path d="M286 438 c-35 -18 -51 -20 -130 -14 -50 3 -106 9 -124 12 l-32 6 0
-116 c0 -97 2 -116 15 -116 9 0 21 -11 27 -25 6 -14 17 -25 25 -25 7 0 13 -7
13 -16 0 -9 9 -18 19 -21 11 -3 21 -13 24 -24 3 -10 12 -19 21 -19 9 0 16 -7
16 -15 0 -8 12 -18 28 -21 15 -4 37 -14 49 -21 20 -13 24 -12 48 11 14 14 33
26 41 26 8 0 17 7 21 16 3 8 16 20 29 25 13 4 24 14 24 21 0 7 10 18 23 23 12
6 23 20 25 33 2 14 10 22 22 22 10 0 22 5 26 12 5 8 -4 10 -34 6 -40 -6 -43
-4 -103 58 l-61 65 -50 -17 c-40 -13 -54 -14 -79 -4 -16 7 -29 16 -29 19 0 9
190 101 208 101 7 0 24 -7 37 -16 19 -12 37 -15 70 -10 25 4 45 12 45 17 0 6
-17 8 -44 4 -33 -5 -51 -3 -68 9 -30 21 -54 20 -102 -6z m-186 -233 c0 -16
-27 -32 -37 -22 -3 4 -3 13 0 22 8 20 37 20 37 0z m40 -40 c0 -16 -27 -32 -37
-22 -3 4 -3 13 0 22 8 20 37 20 37 0z m40 -40 c0 -16 -27 -32 -37 -22 -3 4 -3
13 0 22 8 20 37 20 37 0z m40 -40 c0 -16 -27 -32 -37 -22 -3 4 -3 13 0 22 8
20 37 20 37 0z"/>
</g>
</svg>
