<?xml version="1.0" standalone="no"?>
<!DOCTYPE svg PUBLIC "-//W3C//DTD SVG 20010904//EN"
 "http://www.w3.org/TR/2001/REC-SVG-20010904/DTD/svg10.dtd">
<svg version="1.0" xmlns="http://www.w3.org/2000/svg"
 width="48.000000pt" height="48.000000pt" viewBox="0 0 48.000000 48.000000"
 preserveAspectRatio="xMidYMid meet">

<g transform="translate(0.000000,48.000000) scale(0.100000,-0.100000)"
fill="#000000" stroke="none">
<path d="M202 374 c-34 -23 -27 -83 11 -104 24 -13 30 -13 55 0 37 21 44 81
10 104 -12 9 -29 16 -38 16 -9 0 -26 -7 -38 -16z m68 -18 c28 -35 -11 -93 -47
-70 -36 22 -23 84 17 84 10 0 23 -7 30 -14z"/>
<path d="M66 324 c-20 -20 -20 -48 0 -68 30 -31 84 -9 84 34 0 24 -26 50 -50
50 -10 0 -26 -7 -34 -16z m59 -34 c0 -18 -6 -26 -23 -28 -24 -4 -38 18 -28 44
3 9 15 14 28 12 17 -2 23 -10 23 -28z"/>
<path d="M346 324 c-31 -30 -9 -84 34 -84 24 0 50 26 50 50 0 24 -26 50 -50
50 -10 0 -26 -7 -34 -16z m59 -34 c0 -18 -6 -26 -23 -28 -24 -4 -38 18 -28 44
3 9 15 14 28 12 17 -2 23 -10 23 -28z"/>
<path d="M187 215 c-21 -10 -34 -12 -47 -5 -45 24 -110 -1 -130 -50 -10 -24
-10 -33 0 -45 14 -17 80 -21 80 -5 0 6 -16 10 -35 10 -43 0 -46 20 -10 56 19
19 34 24 58 22 34 -3 34 -2 20 -72 -8 -40 7 -46 117 -46 110 0 125 6 117 46
-14 70 -14 69 20 72 24 2 39 -3 58 -22 36 -36 33 -56 -10 -56 -19 0 -35 -4
-35 -10 0 -16 66 -12 80 5 10 12 10 21 0 45 -20 49 -85 74 -130 50 -13 -7 -26
-5 -47 5 -15 8 -39 15 -53 15 -14 0 -38 -7 -53 -15z m103 -20 c33 -17 50 -43
50 -74 0 -20 -6 -21 -100 -21 -94 0 -100 1 -100 21 0 30 17 57 48 73 35 20 66
20 102 1z"/>
</g>
</svg>
